<svg width="156" height="251.99999999999997" xmlns="http://www.w3.org/2000/svg" xmlns:svg="http://www.w3.org/2000/svg">
 <defs>
  <filter id="svg_7_blur">
   <feGaussianBlur stdDeviation="0.8"/>
  </filter>
 </defs>
 <g display="inline">
  <title>Layer 1</title>
  <path id="svg_2" fill="#000000" d="m151.92556,109.05697l-147.95644,0c-1.93724,0 -3.51124,-1.7533 -3.51124,-3.91122l0,-100.61274c0,-2.15792 1.574,-3.91122 3.51124,-3.91122l148.07752,0c1.93724,0 3.51124,1.7533 3.51124,3.91122l0,100.61274c0,2.15792 -1.574,3.91122 -3.63232,3.91122z" transform="rotate(180 78.00787353515625,54.83938217163087) " stroke="#000000" fill-opacity="0"/>
  <path id="svg_1" fill="#ffffff" d="m-105.05732,-185.8l-147.95644,0c-1.93724,0 -3.51124,-1.81741 -3.51124,-4.05423l0,-104.29155c0,-2.23682 1.574,-4.05423 3.51124,-4.05423l148.07752,0c1.93724,0 3.51124,1.81741 3.51124,4.05423l0,104.29155c0,2.23682 -1.574,4.05423 -3.63232,4.05423z" stroke="#000000"/>
  <path stroke="black" id="svg_1" stroke-width="3" fill="none"/>
  <line stroke="black" transform="rotate(-0.7182599902153015 0.2364284694168448,111.77964782714842) " fill="none" stroke-width="null" stroke-dasharray="null" stroke-linejoin="null" stroke-linecap="null" opacity="0.8" x1="0.39463" y1="101.33634" x2="0.07822" y2="122.22296" id="svg_15"/>
  <path stroke="black" fill="none" d="m7.34418,113.32716l141.09157,0a7.05457,6.27625 0 0 1 7.05457,6.27625l0,125.52484a7.05457,6.27625 0 0 1 -7.05457,6.27625l-141.09157,0a7.05457,6.27625 0 0 1 -7.05458,-6.27625l0,-125.52484a7.05457,6.27625 0 0 1 7.05458,-6.27625z" id="svg_4"/>
  <path stroke="black" fill="#000000" stroke-dasharray="null" stroke-linejoin="null" stroke-linecap="null" opacity="0.8" d="m15.23875,130.30547l1.75398,-1.81883l-3.39124,0l-3.39123,0l0,-1.12594l0,-1.12594l3.35232,0c1.84378,0 3.35232,-0.05707 3.35232,-0.12682c0,-0.06975 -0.734,-0.88822 -1.63111,-1.81883l-1.63112,-1.69201l1.50765,0l1.50765,0l2.30252,2.38408l2.30252,2.38408l-2.30693,2.37951l-2.30693,2.37951l-1.58719,0l-1.58719,0l1.75399,-1.81883l0,0l-0.00001,0l0,0.00002z" transform="rotate(179.87496948242188 15.741653442382814,127.36070251464845) " id="svg_14"/>
  <path stroke="black" id="svg_3" stroke-width="3" fill="#333333" d="m19.5,157.50001l120,0a6,3.63636 0 0 1 6,3.63638l0,72.72726a6,3.63636 0 0 1 -6,3.63638l-120,0a6,3.63636 0 0 1 -6.00001,-3.63638l0,-72.72726a6,3.63636 0 0 1 6.00001,-3.63638z"/>
  <path stroke="black" opacity="0.8" d="m146.89063,7.15622l0,89.52381a6.22727,4.47619 0 0 1 -6.22727,4.47619l-124.54545,0a6.22727,4.47619 0 0 1 -6.22728,-4.47619l0,-89.52381l137,0z" fill="#000000" stroke-width="3" id="svg_1"/>
  <circle id="svg_5" r="5" cy="14" cx="80" opacity="0.78" stroke-linecap="null" stroke-linejoin="null" stroke-dasharray="null" stroke-width="0" stroke="black" fill="#ff0000"/>
  <text filter="url(#svg_7_blur)" stroke-width="0" id="svg_7" fill="#0f0e0e" stroke-dasharray="null" stroke-linejoin="null" stroke-linecap="null" x="187.77393" y="165.08443" font-size="24" font-family="Monospace" text-anchor="middle" xml:space="preserve" font-weight="bold" transform="matrix(1.460766990278585,0,0,1.354796741290448,-178.28341393634793,-34.060038093585405) " stroke="#000000" opacity="0.68">PUSH</text>
  <text fill="#333333" stroke-dasharray="null" stroke-linejoin="null" stroke-linecap="null" x="186.452" y="162.01528" font-size="24" font-family="Monospace" text-anchor="middle" xml:space="preserve" font-weight="bold" transform="matrix(1.460766990278585,0,0,1.354796741290448,-178.28341393634793,-34.060038093585405) " stroke="#000000" opacity="0.59" id="svg_13">PUSH</text>
  <path id="svg_9" stroke="black" fill="#000000" stroke-dasharray="null" stroke-linejoin="null" stroke-linecap="null" opacity="0.8" d="m141.71363,130.62297l1.75398,-1.81882l-3.39123,0l-3.39123,0l0,-1.12594l0,-1.12594l3.35233,0c1.84377,0 3.35232,-0.05707 3.35232,-0.12682c0,-0.06975 -0.734,-0.88823 -1.63111,-1.81883l-1.63112,-1.69201l1.50765,0l1.50765,0l2.30251,2.38408l2.30252,2.38408l-2.30693,2.37952l-2.30693,2.37951l-1.58719,0l-1.5872,0l1.75399,-1.81883l0,0l-0.00001,0z" transform="rotate(179.87496948242188 142.216552734375,127.67820739746095) "/>
  <line transform="rotate(-0.5 155.50300598144472,107.59374999999926) " fill="none" stroke="black" stroke-width="null" stroke-dasharray="null" stroke-linejoin="null" stroke-linecap="null" opacity="0.8" x1="155.66121" y1="92.24805" x2="155.3448" y2="122.93946" id="svg_16"/>
 </g>
</svg>