<svg width="300" height="300" xmlns="http://www.w3.org/2000/svg" xmlns:svg="http://www.w3.org/2000/svg">
 <!-- Created with SVG-edit - http://svg-edit.googlecode.com/ -->
 <defs>
  <filter id="svg_15_blur">
   <feGaussianBlur stdDeviation="1.1"/>
  </filter>
  <filter id="svg_17_blur" x="-50%" y="-50%" width="200%" height="200%">
   <feGaussianBlur stdDeviation="2"/>
  </filter>
  <filter id="svg_18_blur">
   <feGaussianBlur stdDeviation="1.3"/>
  </filter>
  <filter id="svg_20_blur">
   <feGaussianBlur stdDeviation="0.9"/>
  </filter>
  <filter id="svg_23_blur" x="-50%" y="-50%" width="200%" height="200%">
   <feGaussianBlur stdDeviation="3"/>
  </filter>
  <filter id="svg_22_blur">
   <feGaussianBlur stdDeviation="1.9"/>
  </filter>
 </defs>
 <g>
  <title>Layer 1</title>
  <path fill="#000000" fill-opacity="0" stroke-dasharray="null" stroke-linejoin="null" stroke-linecap="null" d="m95.33334,67.3882l99,0l-0.88098,161c-12.88211,12.44444 -90.92363,9.5 -97.13783,-2.5l-0.98119,-158.5z" id="svg_2" stroke="#000000"/>
  <rect stroke="#ff7f00" fill="#f7f3e3" stroke-width="19" stroke-dasharray="null" stroke-linejoin="null" stroke-linecap="null" x="104.57985" y="84.54664" width="79.90867" height="80.0685" id="svg_23" filter="url(#svg_23_blur)"/>
  <rect fill="#f7cf1d" stroke-width="5" stroke-dasharray="null" stroke-linejoin="null" stroke-linecap="null" x="119.42003" y="97.8343" width="51.94064" height="69.06393" id="svg_17" filter="url(#svg_17_blur)" stroke="#ff1000"/>
  <path id="svg_1" fill="black" transform="rotate(-179.63619995117188 144.97467041015628,57.98814392089843) "/>
  <rect fill="#f2d857" stroke-width="2" stroke-dasharray="null" stroke-linejoin="null" stroke-linecap="null" x="125.71803" y="103.09042" width="6.58752" height="47.61492" id="svg_15" filter="url(#svg_15_blur)" stroke="#fc8b44"/>
  <path fill="#000000" stroke-width="null" stroke-dasharray="null" stroke-linejoin="null" stroke-linecap="null" d="m137.27206,25.49787l6.50027,0l0,0c3.59,0 6.50027,2.68629 6.50027,6.00001c0,3.31371 -2.91027,6.00001 -6.50027,6.00001l-6.50027,0l0,-12.00001l0,-0.00001z" id="svg_6" transform="rotate(-89.93856048583984 143.7723388671875,31.4978790283203) " stroke="#f9e593"/>
  <path fill="#000000" stroke-width="null" stroke-dasharray="null" stroke-linejoin="null" stroke-linecap="null" d="m134.8376,46.48146l3.375,-11.5l11.25,0l3.375,11.5l-18,0z" id="svg_7" stroke="#000000"/>
  <path stroke="#000000" fill="#000000" stroke-width="null" stroke-dasharray="null" stroke-linejoin="null" stroke-linecap="null" d="m130.36719,5.62535l14.49959,0l0,0c8.0079,0 14.49959,22.16246 14.49959,49.50123c0,27.33878 -6.49169,49.50123 -14.49959,49.50123l-14.49959,0l0,-99.00246z" id="svg_9" transform="rotate(-89.902587890625 144.8667755126953,55.1265869140625) "/>
  <path fill="#000000" stroke-width="null" stroke-dasharray="null" stroke-linejoin="null" stroke-linecap="null" d="m138.60337,19.69626l6.2415,0l0,0c3.44709,0 6.2415,22.14295 6.2415,49.45766c0,27.31472 -2.79441,49.45766 -6.2415,49.45766l-6.2415,0l0,-98.91532z" id="svg_13" transform="rotate(89.60733795166016 144.84486389160153,69.15392303466798) " stroke="#000000"/>
  <rect fill="#f2d857" stroke-width="2" stroke-dasharray="null" stroke-linejoin="null" stroke-linecap="null" x="156.36598" y="101.99487" width="6.58752" height="47.61492" filter="url(#svg_15_blur)" stroke="#fc8b44" id="svg_16"/>
  <ellipse fill="#fcfcfc" stroke-width="0" stroke-dasharray="null" stroke-linejoin="null" stroke-linecap="null" cx="145.67574" cy="157.76582" id="svg_18" rx="26.25571" ry="5.70776" filter="url(#svg_18_blur)" stroke="#ff1000"/>
  <path fill="#262323" stroke-dasharray="null" stroke-linejoin="null" stroke-linecap="null" d="m96.4611,170.28313l96.14611,0l-0.85558,39.76313c-12.51076,3.07348 -88.30257,2.34627 -94.33763,-0.61744l-0.95291,-39.14569l0.00001,0z" id="svg_20" filter="url(#svg_20_blur)" stroke="#000000"/>
  <rect fill="#f7cf1d" stroke-width="5" stroke-dasharray="null" stroke-linejoin="null" stroke-linecap="null" x="100.01361" y="211.13339" width="90.75343" height="14.26941" filter="url(#svg_17_blur)" id="svg_21" stroke="#ff1000"/>
  <path fill="#f7f3e3" stroke-width="0" stroke-dasharray="null" stroke-linejoin="null" stroke-linecap="null" d="m134.6532,107.42804l9.95353,0l0,0c5.49718,0 9.95353,2.77877 9.95353,6.20657c0,3.42779 -4.45635,6.20657 -9.95353,6.20657l-9.95353,0l0,-12.41313l0,-0.00001z" id="svg_22" transform="rotate(-91.37287902832031 144.60673522949216,113.63461303710936) " filter="url(#svg_22_blur)" stroke="#ff1000"/>
 </g>
</svg>