<svg width="120" height="120" xmlns="http://www.w3.org/2000/svg" xmlns:svg="http://www.w3.org/2000/svg">
 <!-- Created with SVG-edit - http://svg-edit.googlecode.com/ -->
 <defs>
  <filter id="svg_1_blur">
   <feGaussianBlur stdDeviation="1.1"/>
  </filter>
  <filter id="svg_3_blur">
   <feGaussianBlur stdDeviation="1.9"/>
  </filter>
  <filter id="svg_11_blur">
   <feGaussianBlur stdDeviation="0.8"/>
  </filter>
 </defs>
 <g>
  <title>Layer 1</title>
  <ellipse fill="none" stroke-width="5" stroke-dasharray="null" stroke-linejoin="null" stroke-linecap="null" cx="59.5" cy="59" rx="46" ry="45" filter="url(#svg_1_blur)" id="svg_4" stroke="#00ffff"/>
  <ellipse fill="none" stroke-width="5" stroke-dasharray="null" stroke-linejoin="null" stroke-linecap="null" cx="59" cy="59.49999" rx="51" ry="51" id="svg_3" filter="url(#svg_3_blur)" stroke="#000000"/>
  <ellipse fill="none" stroke-width="5" stroke-dasharray="null" stroke-linejoin="null" stroke-linecap="null" cx="59" cy="59.5" id="svg_1" rx="42" ry="42.5" filter="url(#svg_1_blur)" stroke="#000000"/>
  <path fill="#aaff56" stroke-width="5" stroke-dasharray="null" stroke-linejoin="null" stroke-linecap="null" d="m48.31489,54.74995c0.6755,0.8687 1.3471,1.99854 2.03627,3.27228c0.09957,-0.19452 0.19328,-0.38372 0.29285,-0.58357c0.99764,-1.99854 2.12803,-4.26089 3.39509,-6.45129c0.20109,-0.35441 0.41194,-0.65286 0.61693,-0.98861c-0.95078,-1.52422 -1.99918,-2.98449 -3.26428,-4.24224c-1.95623,-1.96656 -4.51182,-3.33623 -7.35245,-3.30692l-12.31135,0l0,9.60366l12.3133,0c1.71219,0.0453 2.79768,0.80208 4.27363,2.6967l0.00001,-0.00001zm26.67653,7.85826l0,6.01161c-1.80004,-0.00533 -4.78319,-0.00533 -5.62855,-0.00533c-2.49897,-0.07994 -4.13892,-1.16715 -5.84525,-3.0591c-0.73798,-0.82873 -1.44472,-1.8653 -2.1417,-3.01913c-0.52322,1.00194 -1.05035,2.03585 -1.58724,3.11239c-0.65208,1.30038 -1.32367,2.63807 -2.02456,3.95445c-0.17376,0.32243 -0.36899,0.65552 -0.55251,0.98328c2.84063,4.07169 6.78042,7.5838 12.1083,7.62643l5.6715,0l0,6.01161l6.86241,-5.39873l6.87413,-5.40938l-6.87413,-5.40405l-6.86241,-5.40405l0.00001,0zm-11.4738,-7.4932c1.70633,-1.89728 3.34628,-2.97916 5.84525,-3.0591c0.84536,0 3.8285,0 5.62855,-0.00533l0,6.01161l6.86241,-5.39873l6.87413,-5.40405l-6.87413,-5.40672l-6.86241,-5.40139l0,6.00628l-5.6715,0c-6.429,0.05329 -10.86077,5.14291 -13.7463,10.18456c-2.9402,5.09495 -5.07213,10.46969 -7.25873,13.27564c-1.47791,1.88929 -2.56145,2.65406 -4.27363,2.6967l-12.3133,0l0,9.60366l12.3133,0c2.84063,0.02931 5.39622,-1.33769 7.35245,-3.30958c1.97575,-1.95857 3.45952,-4.39945 4.791,-6.85633c2.61806,-4.95105 4.791,-10.08597 7.33292,-12.93722l-0.00001,0z" id="svg_11" filter="url(#svg_11_blur)" stroke="#000000"/>
 </g>
</svg>