<svg width="120" height="120" xmlns="http://www.w3.org/2000/svg" xmlns:svg="http://www.w3.org/2000/svg">
 <!-- Created with SVG-edit - http://svg-edit.googlecode.com/ -->
 <defs>
  <filter id="svg_35_blur">
   <feGaussianBlur stdDeviation="1.9"/>
  </filter>
  <filter id="svg_33_blur">
   <feGaussianBlur stdDeviation="1.1"/>
  </filter>
  <filter id="svg_1_blur">
   <feGaussianBlur stdDeviation="0.4" in="SourceGraphic"/>
  </filter>
 </defs>
 <g>
  <title>Layer 1</title>
  <path filter="url(#svg_33_blur)" stroke="#000000" transform="rotate(46.35746765136719 59.335693359375,59.133544921875) " id="svg_33" d="m17.3357,59.13354c0,-23.52598 18.79558,-42.58202 42,-42.58202c23.20442,0 42,19.05604 42,42.58202c0,23.52598 -18.79558,42.58203 -42,42.58203" stroke-linecap="null" stroke-linejoin="null" stroke-dasharray="null" stroke-width="5" fill="none"/>
  <path stroke="#00ffff" transform="rotate(43.47922897338867 59.999999999999986,58.50000000000001) " id="svg_36" filter="url(#svg_35_blur)" d="m13.86444,58.5c0,-25.90964 20.6463,-46.89643 46.13555,-46.89643c25.48926,0 46.13556,20.98679 46.13556,46.89643c0,25.90963 -20.6463,46.89643 -46.13556,46.89643" stroke-linecap="null" stroke-linejoin="null" stroke-dasharray="null" stroke-width="5" fill="none"/>
  <path filter="url(#svg_35_blur)" id="svg_35" d="m25.01406,23.12403c20.49004,-19.54143 52.39844,-19.31523 71.30148,0.50544c18.90305,19.82067 17.61759,51.70397 -2.87245,71.24539c-20.49004,19.54143 -52.39845,19.31524 -71.3015,-0.50543" stroke-linecap="null" stroke-linejoin="null" stroke-dasharray="null" stroke-width="5" fill="none" stroke="#000000"/>
  <path filter="url(#svg_1_blur)" stroke="#000000" id="svg_1" d="m28.998,45.2245l0,23.75301l12.79746,0l19.15776,16.6235l0.01139,-57l-19.1606,16.6235l-12.806,0zm39.31198,-2.73148c-1.11889,-1.1702 -2.91537,-1.1702 -4.02857,0.00602c-1.11035,1.17622 -1.11035,3.08043 0.00569,4.25966l0,-0.00602c2.457,2.59911 3.97163,6.16387 3.97163,10.12571c0,3.95883 -1.51178,7.51156 -3.96593,10.11067c-1.12174,1.1702 -1.12174,3.07441 -0.00569,4.25665c0.55517,0.58661 1.28402,0.88141 2.01286,0.88141c0.73169,0 1.46053,-0.29481 2.01571,-0.88141c3.47909,-3.67004 5.63715,-8.769 5.6343,-14.36732c0.00285,-5.61035 -2.16375,-10.71533 -5.63999,-14.38537zm6.53396,-6.90089c-1.11889,-1.17622 -2.91537,-1.17622 -4.02287,0c-1.11604,1.17622 -1.11604,3.08344 0,4.25364c4.12821,4.36495 6.67347,10.36938 6.67347,17.02961c0,6.65421 -2.54526,12.65564 -6.66778,17.02359c-1.11604,1.17321 -1.11604,3.07742 0,4.25364c0.55517,0.58661 1.28402,0.88141 2.01571,0.88141c0.72884,0 1.45769,-0.29481 2.01286,-0.88141c5.14745,-5.44189 8.33899,-12.98053 8.3333,-21.27723c0.00285,-8.30272 -3.18869,-15.84737 -8.34468,-21.28325z" stroke-linecap="null" stroke-linejoin="null" stroke-dasharray="null" stroke-width="2" fill="#aaffaa"/>
 </g>
</svg>